<svg width="9" height="9" viewBox="0 0 9 9" fill="none" xmlns="http://www.w3.org/2000/svg">
<g id="Group">
<path id="Vector" d="M8.27994 3.43641L8.27994 3.43469C8.28106 2.89283 8.07286 2.37182 7.69938 1.98092C7.32758 1.59384 6.82414 1.37817 6.29993 1.37803C6.03839 1.37878 5.77965 1.43244 5.5392 1.53583C5.29858 1.63928 5.08118 1.79042 4.90006 1.98025L4.8986 1.98179L4.89859 1.98178L4.78782 2.09665C4.71252 2.17473 4.60874 2.21889 4.50027 2.21899C4.39179 2.21909 4.28793 2.17513 4.21248 2.09719L4.10129 1.98233L4.09868 1.97963L4.09869 1.97961C3.91815 1.78956 3.70107 1.63832 3.46065 1.53501C3.22023 1.4317 2.96144 1.37845 2.69996 1.37845C2.43848 1.37845 2.17969 1.4317 1.93927 1.53501C1.69885 1.63832 1.48177 1.78956 1.30123 1.97961L1.29946 1.98146C0.526813 2.78448 0.526722 4.0865 1.2995 4.89003L8.27994 3.43641ZM8.27994 3.43641C8.28115 3.97819 8.07311 4.49916 7.6998 4.8901C7.35445 5.24924 7.01612 5.60965 6.67948 5.96825C6.00836 6.68316 5.34397 7.3909 4.64407 8.06715C4.56026 8.14576 4.42776 8.1421 4.34885 8.0602C4.34883 8.06017 4.3488 8.06014 4.34878 8.06012L1.29952 4.89005L8.27994 3.43641Z" stroke="url(#paint0_radial_203_1459)" stroke-width="0.8" stroke-linejoin="round"/>
</g>
<defs>
<radialGradient id="paint0_radial_203_1459" cx="0" cy="0" r="1" gradientUnits="userSpaceOnUse" gradientTransform="translate(0.319947 -0.250376) rotate(51.6159) scale(11.1936 11.5154)">
<stop offset="0.046875" stop-color="#FD5F4A"/>
<stop offset="0.983052" stop-color="#F249A4"/>
</radialGradient>
</defs>
</svg>
