<svg width="18" height="16" viewBox="0 0 18 16" fill="none" xmlns="http://www.w3.org/2000/svg">
<path d="M16.9601 5.39124L16.9601 5.39297C16.9628 6.56747 16.5077 7.69776 15.6898 8.54656C15.0062 9.25125 14.3329 9.96215 13.6611 10.6715C12.3141 12.0938 10.9729 13.5099 9.56576 14.8576C9.23864 15.1643 8.71943 15.1521 8.40844 14.8318C8.40842 14.8318 8.40839 14.8318 8.40837 14.8318L2.30977 8.5469C0.616893 6.80209 0.616979 3.98202 2.30971 2.23813L2.31148 2.23629C2.70968 1.82077 3.18875 1.48984 3.7197 1.26367C4.25066 1.0375 4.82237 0.920851 5.40017 0.920851C5.97796 0.920851 6.54968 1.0375 7.08064 1.26367C7.61159 1.48984 8.09065 1.82077 8.48885 2.23629L8.48884 2.2363L8.49146 2.23899L8.71384 2.46672C8.7892 2.54389 8.89254 2.58735 9.0004 2.58725C9.10827 2.58715 9.21152 2.54349 9.28673 2.46618L9.50828 2.23845L9.50976 2.23692C9.90898 1.82216 10.3884 1.49166 10.9195 1.26532C11.4504 1.03906 12.0218 0.921589 12.5996 0.92002C13.7603 0.920161 14.8715 1.39378 15.689 2.23763C16.5072 3.0863 16.9626 4.21662 16.9601 5.39124Z" fill="white" stroke="white" stroke-width="0.8" stroke-linejoin="round"/>
</svg>
