<svg width="9" height="8" viewBox="0 0 9 8" fill="none" xmlns="http://www.w3.org/2000/svg">
<path d="M7.37982 3.91211C7.03448 4.27124 6.69616 4.63163 6.35954 4.99022C5.68842 5.70513 5.02402 6.41287 4.32412 7.08912C4.24028 7.16776 4.10773 7.16407 4.02883 7.08209L0.979576 3.91202C0.97957 3.91201 0.979564 3.91201 0.979558 3.912C0.206775 3.10848 0.206867 1.80645 0.979516 1.00343L0.981282 1.00159C1.16183 0.811533 1.3789 0.660296 1.61933 0.556984C1.85974 0.453672 2.11853 0.400419 2.38002 0.400419C2.6415 0.400419 2.90029 0.453672 3.1407 0.556984C3.38113 0.660296 3.59821 0.811533 3.77875 1.00159L3.77874 1.0016L3.78135 1.0043L3.89254 1.11917C3.96798 1.19711 4.07185 1.24106 4.18032 1.24096C4.28879 1.24086 4.39258 1.19671 4.46787 1.11862L4.57865 1.00376L4.57865 1.00376L4.58012 1.00222C4.76124 0.812396 4.97864 0.661258 5.21925 0.557801C5.45971 0.454415 5.71844 0.400756 5.97998 0.4C6.50417 0.400144 7.0076 0.615794 7.37939 1.00285C7.75289 1.39375 7.96111 1.91478 7.95999 2.45666L8.35999 2.45749L7.95999 2.45838C7.9612 3.00018 7.75315 3.52117 7.37982 3.91211ZM7.37982 3.91211C7.37998 3.91195 7.38014 3.91178 7.38029 3.91162L7.66859 4.18886L7.37941 3.91255C7.37955 3.9124 7.37968 3.91226 7.37982 3.91211Z" stroke="url(#paint0_radial_343_7646)" stroke-width="0.8" stroke-linejoin="round"/>
<defs>
<radialGradient id="paint0_radial_343_7646" cx="0" cy="0" r="1" gradientUnits="userSpaceOnUse" gradientTransform="translate(6.62484e-07 -1.2284) rotate(51.6159) scale(11.1936 11.5154)">
<stop offset="0.046875" stop-color="#FD5F4A"/>
<stop offset="0.983052" stop-color="#F249A4"/>
</radialGradient>
</defs>
</svg>
